<svg xmlns="http://www.w3.org/2000/svg" xmlns:xlink="http://www.w3.org/1999/xlink" width="336" zoomAndPan="magnify" viewBox="0 0 252 143.999998" height="192" preserveAspectRatio="xMidYMid meet" version="1.0"><defs><clipPath id="4f17f87354"><path d="M 116 30 L 156 30 L 156 113.859375 L 116 113.859375 Z M 116 30 " clip-rule="nonzero"/></clipPath><clipPath id="1442b233c5"><path d="M 149 29.859375 L 156 29.859375 L 156 39 L 149 39 Z M 149 29.859375 " clip-rule="nonzero"/></clipPath><clipPath id="52fad410d2"><path d="M 116 109 L 125 109 L 125 113.859375 L 116 113.859375 Z M 116 109 " clip-rule="nonzero"/></clipPath></defs><path fill="#ffffff" d="M 210.195312 48.425781 L 224.871094 48.417969 C 227.96875 48.417969 231.136719 48.273438 234.214844 48.609375 C 236.308594 48.820312 238.371094 49.292969 240.351562 50.019531 C 244.382812 51.519531 247.816406 54.25 249.621094 58.222656 C 251.46875 62.285156 251.640625 67.648438 250.035156 71.8125 C 248.4375 75.957031 245.433594 78.664062 241.433594 80.449219 C 245.113281 85.3125 248.527344 90.46875 251.996094 95.492188 L 248.394531 95.503906 L 240.210938 95.5 C 237.023438 91.421875 234.042969 86.746094 231.101562 82.460938 L 221.175781 82.488281 L 221.191406 95.496094 C 217.527344 95.488281 213.867188 95.496094 210.203125 95.527344 C 210.003906 79.835938 210.191406 64.121094 210.191406 48.425781 Z M 221.171875 73.777344 L 227.179688 73.777344 C 230.867188 73.777344 234.671875 73.90625 237.667969 71.386719 C 239.328125 69.695312 239.976562 67.757812 239.945312 65.425781 C 239.917969 63.316406 239.359375 61.300781 237.78125 59.804688 C 233.859375 56.09375 226.109375 57.605469 221.179688 57.34375 C 221.179688 62.820312 221.25 68.308594 221.175781 73.78125 Z M 221.171875 73.777344 " fill-opacity="1" fill-rule="nonzero"/><path fill="#ffffff" d="M 52.132812 48.425781 L 66.800781 48.417969 C 69.898438 48.417969 73.066406 48.273438 76.144531 48.609375 C 78.242188 48.820312 80.300781 49.292969 82.28125 50.015625 C 86.316406 51.519531 89.75 54.25 91.558594 58.222656 C 93.40625 62.285156 93.578125 67.648438 91.972656 71.816406 C 90.375 75.964844 87.371094 78.648438 83.378906 80.449219 L 93.972656 95.496094 L 90.417969 95.503906 L 82.160156 95.503906 C 78.925781 91.355469 76.015625 86.804688 73.046875 82.460938 L 63.117188 82.492188 L 63.132812 95.5 C 59.46875 95.492188 55.808594 95.5 52.144531 95.53125 L 52.132812 48.429688 Z M 63.109375 73.777344 L 68.914062 73.777344 C 72.683594 73.777344 76.5625 73.941406 79.625 71.367188 C 81.28125 69.679688 81.921875 67.742188 81.890625 65.417969 C 81.859375 63.316406 81.289062 61.285156 79.714844 59.796875 C 75.785156 56.074219 68.0625 57.621094 63.113281 57.335938 C 63.113281 62.8125 63.183594 68.300781 63.109375 73.777344 Z M 63.109375 73.777344 " fill-opacity="1" fill-rule="nonzero"/><g clip-path="url(#4f17f87354)"><path fill="#feb602" d="M 149.773438 30.753906 C 151.011719 30.667969 152.253906 30.671875 153.488281 30.773438 C 154.339844 31.378906 154.90625 32.167969 155.53125 32.992188 C 155.5625 33.910156 155.632812 34.871094 155.566406 35.789062 C 155.449219 37.429688 154.738281 38.945312 153.859375 40.308594 C 149.546875 47 139.554688 49.375 132.648438 52.5625 C 131.152344 53.25 129.5 53.878906 128.257812 54.988281 C 130.367188 54.785156 149.6875 54.664062 150.730469 54.96875 C 151.132812 55.085938 151.484375 55.394531 151.636719 55.785156 C 151.769531 56.128906 151.691406 56.523438 151.488281 56.824219 C 151.273438 57.144531 151.035156 57.292969 150.664062 57.371094 C 148.800781 57.777344 146.050781 57.5 144.101562 57.5 L 130.46875 57.476562 C 128.835938 57.46875 126.769531 57.214844 125.210938 57.621094 C 124.992188 57.777344 124.890625 57.882812 124.761719 58.128906 C 124.316406 58.964844 124.453125 59.90625 124.746094 60.75 C 125.074219 61.117188 125.429688 61.195312 125.902344 61.273438 C 127.433594 61.511719 129.1875 61.335938 130.742188 61.332031 L 143.378906 61.332031 C 145.433594 61.324219 147.5625 61.167969 149.605469 61.304688 C 150.0625 61.335938 150.726562 61.40625 151.125 61.660156 C 151.46875 61.878906 151.640625 62.164062 151.722656 62.5625 C 151.789062 62.878906 151.695312 63.195312 151.472656 63.429688 C 151.101562 63.824219 150.371094 63.941406 149.859375 63.988281 C 147.652344 64.199219 145.21875 63.972656 142.988281 63.980469 C 138.011719 63.988281 133.03125 64.070312 128.058594 63.871094 C 134.292969 67.886719 142.046875 69.386719 148.414062 73.410156 C 151.542969 75.386719 154.746094 78.539062 155.484375 82.320312 C 155.632812 83.074219 155.613281 83.875 155.609375 84.644531 C 155.527344 94.597656 142.894531 98.476562 135.355469 101.503906 C 134.269531 101.941406 133.234375 102.480469 132.171875 102.960938 C 131.125 103.429688 129.199219 104.023438 128.554688 104.996094 C 129.546875 105.183594 130.988281 104.945312 132.03125 104.941406 L 144.777344 104.964844 C 146.496094 104.972656 148.34375 104.78125 150.046875 104.921875 C 150.488281 104.960938 150.976562 105.078125 151.3125 105.386719 C 151.574219 105.625 151.726562 106.011719 151.699219 106.367188 C 151.578125 107.855469 149.515625 107.640625 148.46875 107.640625 C 145.945312 107.628906 125.941406 107.367188 125.117188 107.808594 C 124.359375 108.210938 124.511719 110.398438 124.097656 111.210938 C 123.566406 112.257812 122.5625 112.949219 121.671875 113.671875 C 120.980469 113.851562 120.257812 113.789062 119.546875 113.777344 C 118.425781 112.792969 117.066406 112.023438 116.742188 110.449219 C 116.5625 109.589844 116.640625 108.65625 116.726562 107.789062 C 117.589844 99.273438 129.847656 95.292969 136.558594 92.601562 C 138.046875 92.003906 139.476562 91.316406 140.925781 90.628906 C 141.714844 90.257812 143.160156 89.8125 143.644531 89.054688 L 143.578125 88.949219 C 139.46875 89.238281 135.265625 89.039062 131.144531 89.046875 C 128.746094 89.050781 123.597656 89.347656 121.476562 88.855469 C 121.0625 88.757812 120.871094 88.6875 120.652344 88.308594 C 120.472656 87.996094 120.464844 87.617188 120.613281 87.289062 C 120.789062 86.898438 121.140625 86.621094 121.546875 86.503906 C 123.183594 86.035156 125.589844 86.351562 127.308594 86.355469 C 129.148438 86.363281 146.191406 86.597656 146.976562 86.179688 C 147.332031 85.988281 147.523438 85.46875 147.597656 85.097656 C 147.769531 84.28125 147.671875 83.550781 147.226562 82.855469 C 146.984375 82.664062 146.792969 82.605469 146.496094 82.570312 C 144.785156 82.359375 142.863281 82.53125 141.125 82.535156 L 128.851562 82.558594 C 126.65625 82.566406 124.292969 82.75 122.113281 82.519531 C 121.554688 82.460938 121.023438 82.351562 120.691406 81.84375 C 120.5 81.550781 120.457031 81.207031 120.566406 80.875 C 120.699219 80.476562 121.03125 80.1875 121.425781 80.054688 C 122.816406 79.601562 126.640625 79.894531 128.238281 79.890625 L 140.339844 79.882812 C 141.171875 79.894531 142.949219 80.195312 143.671875 79.898438 C 143.289062 79.261719 142.097656 78.859375 141.433594 78.535156 C 140.042969 77.855469 138.648438 77.152344 137.214844 76.566406 C 130.609375 73.851562 121.316406 71.199219 117.777344 64.417969 C 116.476562 61.929688 116.226562 58.578125 117.101562 55.917969 C 119.605469 48.316406 130.085938 45.140625 136.78125 42.378906 C 139.265625 41.351562 141.675781 40.164062 144.078125 38.953125 C 140.710938 38.753906 121.882812 39.472656 120.777344 38.453125 C 120.542969 38.238281 120.445312 37.964844 120.488281 37.644531 C 120.691406 36.164062 122.539062 36.1875 123.621094 36.230469 C 125.5 36.304688 146.421875 36.457031 147.039062 36.015625 C 147.976562 35.347656 147.457031 32.175781 149.769531 30.765625 Z M 149.773438 30.753906 " fill-opacity="1" fill-rule="nonzero"/></g><path fill="#ffffff" d="M 161.742188 48.425781 L 176.296875 48.417969 C 179.855469 48.417969 183.511719 48.234375 187.039062 48.769531 C 189.65625 49.167969 192.347656 49.960938 194.660156 51.273438 C 198.269531 53.316406 200.917969 56.578125 202.015625 60.59375 C 203.222656 65.003906 202.800781 70.109375 200.46875 74.082031 C 197.890625 78.476562 193.660156 80.621094 188.878906 81.863281 C 183.632812 82.929688 178.0625 82.5625 172.726562 82.5625 L 172.746094 95.5 C 169.082031 95.488281 165.417969 95.5 161.75 95.53125 L 161.746094 48.425781 Z M 172.730469 73.605469 L 178.800781 73.625 C 182.535156 73.628906 186.097656 73.757812 189.164062 71.304688 C 190.78125 69.675781 191.484375 67.859375 191.488281 65.585938 C 191.488281 63.457031 190.972656 61.386719 189.386719 59.859375 C 185.574219 56.160156 177.605469 57.550781 172.734375 57.34375 C 172.734375 62.761719 172.804688 68.1875 172.734375 73.605469 Z M 172.730469 73.605469 " fill-opacity="1" fill-rule="nonzero"/><path fill="#ffffff" d="M 23.046875 47.671875 C 24.730469 47.488281 26.585938 47.542969 28.273438 47.679688 C 34.914062 48.203125 40.71875 50.953125 45.039062 56.046875 C 42.71875 58.183594 40.429688 60.484375 37.96875 62.453125 C 37.507812 61.953125 37.03125 61.453125 36.53125 60.988281 C 33.433594 58.097656 29.574219 56.777344 25.367188 56.945312 C 21.410156 57.101562 17.617188 58.609375 14.933594 61.578125 C 12.109375 64.695312 10.988281 68.824219 11.1875 72.972656 C 11.375 76.871094 12.953125 80.675781 15.878906 83.308594 C 18.957031 86.082031 23.023438 87.183594 27.105469 86.96875 C 31.511719 86.738281 35.019531 84.65625 37.941406 81.441406 C 40.429688 83.441406 42.671875 85.792969 45.066406 87.917969 C 40.824219 92.671875 35.777344 95.375 29.410156 96.136719 C 22.210938 96.996094 14.625 95.441406 8.871094 90.878906 C 4.105469 87.101562 0.816406 81.304688 0.167969 75.234375 C -0.539062 68.625 0.964844 61.90625 5.191406 56.675781 C 9.691406 51.113281 16.046875 48.382812 23.046875 47.671875 Z M 23.046875 47.671875 " fill-opacity="1" fill-rule="nonzero"/><path fill="#ffffff" d="M 101.742188 48.425781 L 112.742188 48.425781 C 112.582031 54.347656 112.714844 60.3125 112.714844 66.242188 L 112.742188 95.511719 C 109.089844 95.40625 105.402344 95.496094 101.753906 95.527344 L 101.746094 48.425781 Z M 101.742188 48.425781 " fill-opacity="1" fill-rule="nonzero"/><g clip-path="url(#1442b233c5)"><path fill="#feb602" d="M 149.132812 31.253906 C 149.132812 31.253906 151.371094 28.761719 154.332031 30.53125 C 157.089844 32.175781 154.984375 38.199219 154.984375 38.199219 L 151.914062 34.4375 L 149.34375 31.824219 " fill-opacity="1" fill-rule="nonzero"/></g><g clip-path="url(#52fad410d2)"><path fill="#feb602" d="M 116.636719 109.308594 C 116.636719 109.308594 116.503906 113.480469 120.171875 114.054688 C 123.84375 114.628906 124.398438 109.921875 124.398438 109.921875 " fill-opacity="1" fill-rule="nonzero"/></g></svg>